<svg id="Layer_1" data-name="Layer 1" xmlns="http://www.w3.org/2000/svg" viewBox="0 0 1528.32 1229.89"><defs><style>.cls-1{fill:#4285f4;}.cls-2{fill:#fbbc05;}.cls-3{fill:#ea4335;}.cls-4{fill:#34a853;}</style></defs><path class="cls-1" d="M1155.65,151.83c1.7-1.4,3.07-1.45,4.92.19,10.78,9.55,21,19.64,31,30A598.16,598.16,0,0,1,1337,435.65a12.9,12.9,0,0,0,5.43,7.77,431.88,431.88,0,0,1,184.31,319.3c1.08,13.17,1.72,26.37,1.56,39.56a431.27,431.27,0,0,1-22,132.12,426.68,426.68,0,0,1-83,145.94Q1352.38,1162,1251.46,1201a424.33,424.33,0,0,1-100.81,25.29,433.85,433.85,0,0,1-53.43,3.42q-164.78-.06-329.56-.07c-2.39,0-5.09,1-7.17-1.17-1.59-2.43-1.44-5.19-1.44-7.9q0-123.88,0-247.77a20.65,20.65,0,0,1,.73-6.91c1-2.4,3.17-2.61,5.33-2.77,2.52-.19,5-.1,7.58-.1,105.21,0,210.42.16,315.62-.1,36.22-.08,70-9,99.8-30.62,39.48-28.58,63.36-67,68.14-115.4,6.87-69.49-20.87-123.08-79.65-160.27-23.11-14.61-49.13-21.18-76.35-22.88-7.49-.47-8.3-1.15-8.36-8.66-.1-11.87.11-23.73-.06-35.59A330.83,330.83,0,0,0,1005,370c-9.89-10.82-20.64-20.56-31.5-30.25-2.81-2.76-2.4-5.43.21-8.08,1.22-1.25,2.44-2.5,3.67-3.73q85.45-85.47,170.95-170.88C1150.45,154.94,1152,151.84,1155.65,151.83Z" transform="translate(0)"/><path class="cls-2" d="M168.47,1139.61a420.94,420.94,0,0,1-74.23-72.79A428.17,428.17,0,0,1,18.29,921.66,432.67,432.67,0,0,1,2.06,838.44,421.44,421.44,0,0,1,.44,778a432.5,432.5,0,0,1,105.91-264,424.14,424.14,0,0,1,80.71-71.84c1.59-1.09,3-2.37,4.56-3.56.47-2.17,2.34-3,3.94-4A427.4,427.4,0,0,1,368.62,369.1,419.87,419.87,0,0,1,447,364.6c22.48.95,44.95,2.93,67,8.14a459.06,459.06,0,0,1,85.16,26.16c39.22,16.44,75,38.58,107.7,65.61a438.91,438.91,0,0,1,62.39,63.55c5.47,6.79,5.44,7.8-.8,14.05q-90.54,90.57-181.1,181.11c-.83.82-1.63,1.68-2.52,2.43-3.84,3.29-5.13,3.19-7.45-1.4A166.11,166.11,0,0,0,564,701.69c-29.71-41.09-69.67-64.57-120.27-69.31-45.06-4.23-85.13,8.75-119.68,37.48-32.19,26.77-51.83,61.3-57.54,103-6.43,47,5.28,89.55,34.87,126.68a153.76,153.76,0,0,0,51.54,42.15c3,1.52,6.8,2.2,8.22,6-.27,2.59-2.35,3.94-4,5.55q-91.24,91.32-182.57,182.55C172.88,1137.46,171.52,1139.94,168.47,1139.61Z" transform="translate(0)"/><path class="cls-3" d="M514.23,374.22c-7.83-1.22-15.59-2.84-23.45-4-8.62-1.21-17.28-2-25.92-2.89a323.12,323.12,0,0,0-45.93-1.13,448.13,448.13,0,0,0-47.36,4.14A468.6,468.6,0,0,0,322.66,380,424.12,424.12,0,0,0,248,407.14a398.25,398.25,0,0,0-51.23,28.57c-1.61,1.08-3.4,1.88-5.1,2.8-2.23-.26-4.07,1.25-6.74,1.45.46-2.12.79-4.15,1.35-6.11A600.13,600.13,0,0,1,400.45,120.67a594.74,594.74,0,0,1,242.88-109A608.27,608.27,0,0,1,739.2.43a596.5,596.5,0,0,1,268.91,53.13,598.51,598.51,0,0,1,144.42,93c1.64,1.42,3.33,2.75,3.12,5.25-1.59,1.69-3.14,3.43-4.78,5.07Q1063.81,244,976.74,331.05c-1.24,1.23-2.43,2.51-3.7,3.71-1.47,1.39-.21,2.42.39,3.54-3.14,3.59-5.27,0-7.11-1.41a334.26,334.26,0,0,0-37.58-25.53c-38-22-78.47-36.44-122.08-41.93-16.19-2-32.42-3.67-48.74-3.29-45.78,1.06-89.71,10.45-131.57,29.37a330.5,330.5,0,0,0-102.25,72.1C521.31,370.5,518.76,373.87,514.23,374.22Z" transform="translate(0)"/><path class="cls-4" d="M168.47,1139.61l153-152.91q19.59-19.56,39.24-39.08c2.85-1.15,5.36.17,7.85,1.18,20.46,8.33,41.78,11.71,63.8,11.69q158.32-.09,316.66,0a47.17,47.17,0,0,1,8.15.26c2,.36,4.5.51,4.07,3.7-.1,15.54-.27,31.08-.28,46.63q0,105.53,0,211.06a20.92,20.92,0,0,1-.47,6.36c-2.72-.1-5.43-.29-8.14-.29q-158.31,0-316.63,0c-37.79,0-75.18-3.59-111.9-12.82a430.46,430.46,0,0,1-79.92-28.5,423.87,423.87,0,0,1-71.39-42.63C170.86,1143,168.6,1142.21,168.47,1139.61Z" transform="translate(0)"/></svg>